<?xml version="1.0" encoding="UTF-8"?>
<!DOCTYPE svg PUBLIC "-//W3C//DTD SVG 1.1//EN" "http://www.w3.org/Graphics/SVG/1.1/DTD/svg11.dtd">
<svg xmlns="http://www.w3.org/2000/svg" version="1.1" width="4088px" height="692px" style="shape-rendering:geometricPrecision; text-rendering:geometricPrecision; image-rendering:optimizeQuality; fill-rule:evenodd; clip-rule:evenodd" xmlns:xlink="http://www.w3.org/1999/xlink">
<g><path style="opacity:0.991" fill="white" d="M 312.5,-0.5 C 336.5,-0.5 360.5,-0.5 384.5,-0.5C 453.04,2.5343 520.373,13.701 586.5,33C 616.456,42.5408 646.123,52.8741 675.5,64C 681.57,65.8924 687.736,67.3924 694,68.5C 706.258,66.9086 713.258,59.9086 715,47.5C 716.029,41.8769 716.529,36.2102 716.5,30.5C 743.167,30.5 769.833,30.5 796.5,30.5C 796.5,99.8333 796.5,169.167 796.5,238.5C 769.831,238.667 743.165,238.5 716.5,238C 702.825,198.989 678.158,168.989 642.5,148C 603.82,126.215 562.487,111.549 518.5,104C 442.188,90.2507 365.521,87.5841 288.5,96C 263.475,99.5646 239.475,106.565 216.5,117C 200.761,124.775 188.594,136.275 180,151.5C 171.252,170.994 174.752,187.827 190.5,202C 207.854,213.681 226.854,221.681 247.5,226C 261.417,229.097 275.417,231.764 289.5,234C 381.821,245.082 474.154,256.082 566.5,267C 600.906,271.179 634.906,277.512 668.5,286C 702.349,294.596 733.683,308.596 762.5,328C 798.449,355.036 820.283,390.87 828,435.5C 840.607,505.361 819.774,562.861 765.5,608C 727.393,636.885 685.06,657.551 638.5,670C 596.431,681.602 553.765,688.768 510.5,691.5C 485.833,691.5 461.167,691.5 436.5,691.5C 366.949,689.205 298.616,678.372 231.5,659C 202.425,649.197 173.425,639.197 144.5,629C 132.82,624.863 120.82,623.196 108.5,624C 104.187,625.306 100.687,627.806 98,631.5C 92.2792,642.786 89.7792,654.786 90.5,667.5C 64.1667,667.5 37.8333,667.5 11.5,667.5C 11.5,589.5 11.5,511.5 11.5,433.5C 37.8418,433.167 64.1751,433.5 90.5,434.5C 99.593,469.529 117.926,498.695 145.5,522C 178.87,548.353 216.203,567.353 257.5,579C 361.447,609.935 466.113,612.602 571.5,587C 594.438,581.362 615.438,571.695 634.5,558C 659.308,535.969 663.142,510.802 646,482.5C 631.74,467.949 614.573,458.449 594.5,454C 580.018,450.104 565.351,447.104 550.5,445C 451.139,432.52 351.805,419.853 252.5,407C 208.667,400.375 166.001,389.375 124.5,374C 90.1146,361.248 60.2812,341.748 35,315.5C 15.1055,291.648 3.27221,264.315 -0.5,233.5C -0.5,221.167 -0.5,208.833 -0.5,196.5C 5.30228,150.064 25.9689,111.564 61.5,81C 98.6146,51.61 140.281,30.9434 186.5,19C 227.987,8.25053 269.987,1.75053 312.5,-0.5 Z"/></g>
<g><path style="opacity:0.992" fill="white" d="M 1419.5,-0.5 C 1442.17,-0.5 1464.83,-0.5 1487.5,-0.5C 1565.63,2.24703 1640.96,18.4137 1713.5,48C 1769.15,71.3891 1817.32,105.222 1858,149.5C 1926.04,229.998 1947.37,321.665 1922,424.5C 1901.73,490.738 1864.23,544.905 1809.5,587C 1753.54,628.802 1691.21,657.469 1622.5,673C 1578.23,683.116 1533.56,689.282 1488.5,691.5C 1465.17,691.5 1441.83,691.5 1418.5,691.5C 1340.72,688.644 1265.72,672.477 1193.5,643C 1138.4,619.716 1090.57,586.216 1050,542.5C 982.669,463.504 960.669,373.171 984,271.5C 1000.33,211.996 1031.49,161.829 1077.5,121C 1128.38,77.2151 1186.38,45.8818 1251.5,27C 1306.56,11.2113 1362.56,2.04467 1419.5,-0.5 Z M 1433.5,92.5 C 1496.54,88.8719 1555.54,102.372 1610.5,133C 1682.22,178.542 1721.05,244.042 1727,329.5C 1731.22,412.231 1702.72,481.065 1641.5,536C 1593.07,574.376 1537.73,595.043 1475.5,598C 1414.71,602.134 1357.38,590.134 1303.5,562C 1222.59,513.071 1181.26,440.904 1179.5,345.5C 1181.18,252.603 1220.84,181.436 1298.5,132C 1340.59,108.58 1385.59,95.413 1433.5,92.5 Z"/></g>
<g><path style="opacity:0.993" fill="white" d="M 2010.5,37.5 C 2116.83,37.3333 2223.17,37.5 2329.5,38C 2475.24,162.952 2621.07,287.785 2767,412.5C 2767.67,323.5 2767.67,234.5 2767,145.5C 2766.38,130.556 2758.88,121.389 2744.5,118C 2710.53,116.565 2676.53,116.065 2642.5,116.5C 2642.5,90.1667 2642.5,63.8333 2642.5,37.5C 2768.83,37.5 2895.17,37.5 3021.5,37.5C 3021.5,63.8333 3021.5,90.1667 3021.5,116.5C 2987.47,116.057 2953.47,116.557 2919.5,118C 2908.26,120.034 2901.09,126.534 2898,137.5C 2896.51,309.471 2896.01,481.471 2896.5,653.5C 2853.83,653.667 2811.17,653.5 2768.5,653C 2600.76,509.382 2432.93,365.882 2265,222.5C 2264.33,329.5 2264.33,436.5 2265,543.5C 2264.68,559.489 2272.18,569.322 2287.5,573C 2321.47,574.443 2355.47,574.943 2389.5,574.5C 2389.5,600.833 2389.5,627.167 2389.5,653.5C 2263.17,653.5 2136.83,653.5 2010.5,653.5C 2010.5,627.167 2010.5,600.833 2010.5,574.5C 2042.17,574.667 2073.84,574.5 2105.5,574C 2121.98,573.695 2131.81,565.528 2135,549.5C 2135.67,413.5 2135.67,277.5 2135,141.5C 2131.58,125.179 2121.41,117.012 2104.5,117C 2073.17,116.5 2041.84,116.333 2010.5,116.5C 2010.5,90.1667 2010.5,63.8333 2010.5,37.5 Z"/></g>
<g><path style="opacity:0.991" fill="white" d="M 4087.5,37.5 C 4087.5,63.8333 4087.5,90.1667 4087.5,116.5C 4062.83,116.333 4038.16,116.5 4013.5,117C 3983.41,117.299 3957.91,128.133 3937,149.5C 3855.03,237.801 3772.7,325.801 3690,413.5C 3689.78,416.426 3689.28,419.26 3688.5,422C 3689.33,465.096 3689.83,508.262 3690,551.5C 3693.92,566.561 3703.75,574.061 3719.5,574C 3750.83,574.5 3782.16,574.667 3813.5,574.5C 3813.5,600.833 3813.5,627.167 3813.5,653.5C 3663.83,653.5 3514.17,653.5 3364.5,653.5C 3364.5,627.167 3364.5,600.833 3364.5,574.5C 3396.17,574.667 3427.84,574.5 3459.5,574C 3476.01,573.686 3485.84,565.52 3489,549.5C 3489.67,507.167 3489.67,464.833 3489,422.5C 3405.3,333.134 3321.97,243.468 3239,153.5C 3217.48,129.825 3190.64,117.658 3158.5,117C 3133.84,116.5 3109.17,116.333 3084.5,116.5C 3084.5,90.1667 3084.5,63.8333 3084.5,37.5C 3236.83,37.5 3389.17,37.5 3541.5,37.5C 3541.5,63.8333 3541.5,90.1667 3541.5,116.5C 3526.16,116.333 3510.83,116.5 3495.5,117C 3479.37,117.461 3472.2,125.627 3474,141.5C 3476.28,145.447 3478.95,149.113 3482,152.5C 3531,204.5 3580,256.5 3629,308.5C 3677.77,255.976 3726.77,203.643 3776,151.5C 3783.45,144.909 3785.45,136.909 3782,127.5C 3777.47,120.484 3770.97,116.984 3762.5,117C 3746.84,116.5 3731.17,116.333 3715.5,116.5C 3715.5,90.1667 3715.5,63.8333 3715.5,37.5C 3839.5,37.5 3963.5,37.5 4087.5,37.5 Z"/></g>
</svg>
